<?xml version="1.0" standalone="no"?>
<!DOCTYPE svg PUBLIC "-//W3C//DTD SVG 20010904//EN"
 "http://www.w3.org/TR/2001/REC-SVG-20010904/DTD/svg10.dtd">
<svg version="1.0" xmlns="http://www.w3.org/2000/svg"
 width="260.000000pt" height="260.000000pt" viewBox="0 0 260.000000 260.000000"
 preserveAspectRatio="xMidYMid meet">
<metadata>
Created by potrace 1.11, written by Peter Selinger 2001-2013
</metadata>
<g transform="translate(0.000000,260.000000) scale(0.100000,-0.100000)"
fill="#000000" stroke="none">
<path d="M1505 1949 c-4 -6 -4 -27 1 -47 4 -20 8 -42 10 -49 1 -6 5 -48 8 -94
4 -45 11 -103 16 -128 5 -25 12 -62 14 -81 3 -19 12 -71 20 -115 9 -44 18 -93
21 -110 3 -16 7 -43 10 -59 6 -28 6 -28 -40 15 -57 55 -81 68 -122 69 -43 0
-99 -49 -113 -100 -39 -146 18 -286 126 -306 50 -9 130 2 176 25 37 18 39 18
48 1 8 -15 15 -17 41 -10 42 12 43 14 32 57 -7 26 -6 44 1 56 8 13 7 19 -6 29
-10 7 -24 32 -32 56 -19 54 -70 304 -91 442 -8 58 -18 119 -20 135 -24 135
-38 202 -47 212 -13 16 -44 17 -53 2z m-22 -681 c12 -6 36 -27 52 -45 32 -37
105 -151 105 -165 0 -14 -60 -39 -108 -44 -91 -10 -151 59 -137 160 7 59 30
106 51 106 8 0 25 -5 37 -12z"/>
<path d="M948 1406 c-62 -44 -118 -185 -113 -286 7 -126 75 -230 160 -246 114
-21 286 58 262 120 -5 13 -18 10 -82 -20 -64 -31 -81 -35 -119 -30 -55 9 -104
40 -130 86 -68 115 41 369 133 311 25 -16 5 -56 -38 -76 -56 -25 -80 -50 -74
-75 7 -28 38 -25 99 10 116 66 134 140 49 199 -52 35 -102 38 -147 7z"/>
</g>
</svg>
